<?xml version="1.0" encoding="utf-8"?>
<svg viewBox="78.411 92.728 288 234.414" xmlns="http://www.w3.org/2000/svg">
  <path fill-rule="evenodd" clip-rule="evenodd" d="M 225.411 112.728 C 225.753 112.728 225.907 113.829 226.657 114.579 C 227.407 115.329 228.411 115.387 228.411 115.728 C 228.411 116.068 227.4 116.221 226.65 116.971 C 225.9 117.721 225.845 118.728 225.411 118.728 C 224.977 118.728 224.899 117.67 224.149 116.92 C 223.399 116.17 222.411 116.101 222.411 115.728 C 222.411 115.354 223.316 115.343 224.1 114.558 C 224.884 113.774 225.069 112.728 225.411 112.728 Z" fill="#FFDB63"/>
  <path fill-rule="evenodd" clip-rule="evenodd" d="M 156.411 92.728 C 156.982 92.728 157.238 94.564 158.488 95.814 C 159.738 97.064 161.411 97.16 161.411 97.728 C 161.411 98.296 159.727 98.55 158.477 99.8 C 157.227 101.05 157.134 102.728 156.411 102.728 C 155.688 102.728 155.557 100.966 154.307 99.716 C 153.057 98.466 151.411 98.35 151.411 97.728 C 151.411 97.105 152.919 97.086 154.226 95.779 C 155.533 94.471 155.84 92.728 156.411 92.728 Z" fill="#FFDB63"/>
  <path fill-rule="evenodd" clip-rule="evenodd" d="M 147.411 154.728 C 147.753 154.728 147.907 155.829 148.657 156.579 C 149.407 157.329 150.411 157.387 150.411 157.728 C 150.411 158.068 149.4 158.221 148.65 158.971 C 147.9 159.721 147.845 160.728 147.411 160.728 C 146.977 160.728 146.899 159.67 146.149 158.92 C 145.399 158.17 144.411 158.101 144.411 157.728 C 144.411 157.354 145.316 157.343 146.1 156.558 C 146.884 155.774 147.069 154.728 147.411 154.728 Z" fill="#FFDB63"/>
  <path fill-rule="evenodd" clip-rule="evenodd" d="M 183.411 119.728 C 183.753 119.728 183.907 120.829 184.657 121.579 C 185.407 122.329 186.411 122.387 186.411 122.728 C 186.411 123.068 185.4 123.221 184.65 123.971 C 183.9 124.721 183.845 125.728 183.411 125.728 C 182.977 125.728 182.899 124.67 182.149 123.92 C 181.399 123.17 180.411 123.101 180.411 122.728 C 180.411 122.354 181.316 122.343 182.1 121.558 C 182.884 120.774 183.069 119.728 183.411 119.728 Z" fill="#FFDB63"/>
  <path fill-rule="evenodd" clip-rule="evenodd" d="M 262.411 146.728 C 262.753 146.728 262.907 147.829 263.657 148.579 C 264.407 149.329 265.411 149.387 265.411 149.728 C 265.411 150.068 264.4 150.221 263.65 150.971 C 262.9 151.721 262.845 152.728 262.411 152.728 C 261.977 152.728 261.899 151.67 261.149 150.92 C 260.399 150.17 259.411 150.101 259.411 149.728 C 259.411 149.354 260.316 149.343 261.1 148.558 C 261.884 147.774 262.069 146.728 262.411 146.728 Z" fill="#FFDB63"/>
  <path fill-rule="evenodd" clip-rule="evenodd" d="M 253.411 125.728 C 254.516 125.728 255.411 124.832 255.411 123.728 C 255.411 122.623 254.516 121.728 253.411 121.728 C 252.306 121.728 251.411 122.623 251.411 123.728 C 251.411 124.832 252.306 125.728 253.411 125.728 Z" fill="#E6EBEE"/>
  <path fill-rule="evenodd" clip-rule="evenodd" d="M 292.911 220.728 C 293.739 220.728 294.411 220.056 294.411 219.228 C 294.411 218.4 293.739 217.728 292.911 217.728 C 292.083 217.728 291.411 218.4 291.411 219.228 C 291.411 220.056 292.083 220.728 292.911 220.728 Z" fill="#E6EBEE"/>
  <path fill-rule="evenodd" clip-rule="evenodd" d="M 265.911 243.728 C 266.739 243.728 267.411 243.056 267.411 242.228 C 267.411 241.4 266.739 240.728 265.911 240.728 C 265.083 240.728 264.411 241.4 264.411 242.228 C 264.411 243.056 265.083 243.728 265.911 243.728 Z" fill="#E6EBEE"/>
  <path fill-rule="evenodd" clip-rule="evenodd" d="M 145.411 121.728 C 145.963 121.728 146.411 121.28 146.411 120.728 C 146.411 120.175 145.963 119.728 145.411 119.728 C 144.859 119.728 144.411 120.175 144.411 120.728 C 144.411 121.28 144.859 121.728 145.411 121.728 Z" fill="#E6EBEE"/>
  <path fill-rule="evenodd" clip-rule="evenodd" d="M 141.411 223.728 C 141.963 223.728 142.411 223.28 142.411 222.728 C 142.411 222.176 141.963 221.728 141.411 221.728 C 140.859 221.728 140.411 222.176 140.411 222.728 C 140.411 223.28 140.859 223.728 141.411 223.728 Z" fill="#E6EBEE"/>
  <path fill-rule="evenodd" clip-rule="evenodd" d="M 293.411 125.728 C 293.753 125.728 293.907 126.829 294.657 127.579 C 295.407 128.329 296.411 128.387 296.411 128.728 C 296.411 129.068 295.4 129.221 294.65 129.971 C 293.9 130.721 293.845 131.728 293.411 131.728 C 292.977 131.728 292.899 130.67 292.149 129.92 C 291.399 129.17 290.411 129.101 290.411 128.728 C 290.411 128.354 291.316 128.343 292.1 127.558 C 292.884 126.774 293.069 125.728 293.411 125.728 Z" fill="#FFDB63"/>
  <path d="M 144.411 193.728 C 136.963 177.651 128.411 176.728 120.411 180.228 C 129.411 181.329 136.411 188.728 139.411 195.728 C 139.911 194.728 142.911 193.228 144.411 193.728 Z" fill="black" fill-opacity="0.04"/>
  <path fill-rule="evenodd" clip-rule="evenodd" d="M 109.657 188.73 C 110.251 187.244 111.044 185.859 112.001 184.607 C 115.199 180.426 120.239 177.728 125.911 177.728 C 134.378 177.728 141.439 183.74 143.061 191.729 C 147.73 191.801 151.581 195.242 152.293 199.728 L 173.411 199.728 C 173.963 199.728 174.411 200.176 174.411 200.728 C 174.411 201.28 173.963 201.728 173.411 201.728 L 151.396 201.728 C 150.867 201.728 150.429 201.315 150.398 200.786 C 150.17 196.85 146.905 193.728 142.911 193.728 C 142.701 193.728 142.512 193.735 142.306 193.752 C 141.783 193.794 141.316 193.423 141.238 192.904 L 141.234 192.878 C 140.133 185.635 134.017 180.039 126.54 179.74 C 126.332 179.732 126.122 179.728 125.911 179.728 C 120.84 179.728 116.337 182.163 113.509 185.928 C 111.563 188.519 110.411 191.739 110.411 195.228 C 110.411 195.78 109.963 196.228 109.411 196.228 C 108.859 196.228 108.411 195.78 108.411 195.228 C 108.411 193.675 108.613 192.17 108.993 190.736 C 103.664 190.955 99.411 195.345 99.411 200.728 C 99.411 201.28 98.963 201.728 98.411 201.728 L 79.411 201.728 C 78.859 201.728 78.411 201.28 78.411 200.728 C 78.411 200.176 78.859 199.728 79.411 199.728 L 97.452 199.728 C 97.96 193.568 103.12 188.728 109.411 188.728 C 109.492 188.728 109.574 188.729 109.657 188.73 Z M 177.411 200.728 C 177.411 200.176 177.859 199.728 178.411 199.728 L 187.411 199.728 C 187.963 199.728 188.411 200.176 188.411 200.728 C 188.411 201.28 187.963 201.728 187.411 201.728 L 178.411 201.728 C 177.859 201.728 177.411 201.28 177.411 200.728 Z" fill="#CAD3D9"/>
  <path d="M 321.411 166.728 C 318.411 157.228 307.411 153.895 299.411 157.395 C 308.411 158.496 312.411 162.728 315.411 169.728 C 316.911 168.228 318.911 167.228 321.411 166.728 Z" fill="black" fill-opacity="0.04"/>
  <path fill-rule="evenodd" clip-rule="evenodd" d="M 305.911 154.728 C 296.844 154.728 289.302 161.249 287.717 169.857 C 283.1 170.571 279.433 174.154 278.592 178.728 L 258.411 178.728 C 257.859 178.728 257.411 179.175 257.411 179.728 C 257.411 180.28 257.859 180.728 258.411 180.728 L 279.46 180.728 C 279.974 180.728 280.405 180.338 280.456 179.826 C 280.883 175.524 284.342 172.112 288.665 171.758 C 289.131 171.72 289.508 171.364 289.574 170.901 C 290.704 162.89 297.588 156.728 305.911 156.728 C 312.055 156.728 317.417 160.086 320.257 165.071 C 319.104 165.319 317.996 165.693 316.982 166.172 C 316.483 166.409 316.271 167.005 316.508 167.504 C 316.745 168.003 317.341 168.215 317.84 167.978 C 319.084 167.383 320.378 166.992 321.767 166.823 C 321.807 166.823 321.847 166.821 321.888 166.816 C 322.397 166.756 322.886 166.727 323.411 166.728 C 327.098 166.728 330.426 168.262 332.792 170.728 C 335.033 173.063 336.411 176.235 336.411 179.728 C 336.411 180.211 336.754 180.614 337.21 180.707 C 337.275 180.721 337.342 180.728 337.411 180.728 L 357.411 180.728 C 357.963 180.728 358.411 180.28 358.411 179.728 C 358.411 179.175 357.963 178.728 357.411 178.728 L 338.378 178.728 C 338.153 175.307 336.781 172.2 334.644 169.787 C 331.896 166.684 327.882 164.728 323.411 164.728 C 323.066 164.728 322.713 164.74 322.366 164.764 C 319.295 158.806 313.08 154.728 305.911 154.728 Z M 360.411 179.728 C 360.411 179.175 360.859 178.728 361.411 178.728 L 365.411 178.728 C 365.963 178.728 366.411 179.175 366.411 179.728 C 366.411 180.28 365.963 180.728 365.411 180.728 L 361.411 180.728 C 360.859 180.728 360.411 180.28 360.411 179.728 Z M 245.411 179.728 C 245.411 179.175 245.859 178.728 246.411 178.728 L 254.411 178.728 C 254.963 178.728 255.411 179.175 255.411 179.728 C 255.411 180.28 254.963 180.728 254.411 180.728 L 246.411 180.728 C 245.859 180.728 245.411 180.28 245.411 179.728 Z" fill="#CAD3D9"/>
  <path d="M 239.411 265.728 C 228.911 249.228 213.911 245.728 200.911 250.728 C 218.911 252.228 230.859 265.699 232.411 271.728 C 235.911 267.728 238.411 265.728 239.411 265.728 Z" fill="black" fill-opacity="0.04"/>
  <path fill-rule="evenodd" clip-rule="evenodd" d="M 186.519 273.818 C 187.736 260.312 199.088 249.728 212.911 249.728 C 223.549 249.728 232.724 255.996 236.943 265.044 C 235.472 265.798 234.178 266.846 233.139 268.11 C 232.788 268.537 232.849 269.167 233.276 269.518 C 233.702 269.868 234.333 269.807 234.683 269.381 C 236.519 267.149 239.299 265.728 242.411 265.728 C 247.312 265.728 251.391 269.255 252.246 273.909 C 252.331 274.37 252.724 274.709 253.19 274.727 L 253.202 274.728 C 253.211 274.728 253.22 274.728 253.23 274.728 L 253.247 274.728 L 288.411 274.728 C 288.963 274.728 289.411 274.28 289.411 273.728 C 289.411 273.176 288.963 272.728 288.411 272.728 L 254.033 272.728 C 252.7 267.552 248.003 263.728 242.411 263.728 C 241.151 263.728 239.935 263.922 238.794 264.283 C 234.277 254.511 224.387 247.728 212.911 247.728 C 198.356 247.728 186.35 258.638 184.624 272.728 L 158.411 272.728 C 157.859 272.728 157.411 273.176 157.411 273.728 C 157.411 274.28 157.859 274.728 158.411 274.728 L 185.523 274.728 C 186.041 274.728 186.473 274.333 186.519 273.818 Z M 147.411 273.728 C 147.411 273.176 147.859 272.728 148.411 272.728 L 154.411 272.728 C 154.963 272.728 155.411 273.176 155.411 273.728 C 155.411 274.28 154.963 274.728 154.411 274.728 L 148.411 274.728 C 147.859 274.728 147.411 274.28 147.411 273.728 Z" fill="#CAD3D9"/>
  <path fill-rule="evenodd" clip-rule="evenodd" d="M 211.816 136.537 C 210.553 135.381 208.911 134.728 207.164 134.728 C 203.381 134.728 200.318 137.753 200.318 141.478 C 200.318 144.138 201.898 146.516 204.317 147.61 C 204.831 147.842 205.051 148.454 204.803 148.961 C 204.186 150.218 203.862 151.578 203.862 152.978 C 203.862 158.083 208.057 162.228 213.238 162.228 C 215.827 162.228 218.244 161.184 220.005 159.369 C 220.194 159.175 220.452 159.066 220.723 159.066 L 233.334 159.066 L 211.816 136.537 Z M 187.411 171.728 C 178.574 171.728 171.411 178.891 171.411 187.728 L 171.411 217.728 L 189.411 217.728 L 203.411 217.728 L 265.411 217.728 L 265.411 188.728 C 265.411 179.217 257.85 171.728 248.411 171.728 L 245.411 171.728 C 245.392 171.728 245.37 171.728 245.344 171.728 C 245.306 171.729 245.261 171.73 245.212 171.731 C 244.989 171.735 244.669 171.742 244.411 171.728 L 189.411 171.728 L 189.411 171.851 C 188.756 171.77 188.088 171.728 187.411 171.728 Z M 215.411 247.836 L 215.411 219.728 L 221.411 219.728 L 221.411 249.017 C 219.49 248.418 217.482 248.016 215.411 247.836 Z" fill="white"/>
  <path fill-rule="evenodd" clip-rule="evenodd" d="M 259.411 217.728 L 265.411 217.728 L 265.411 188.728 C 265.411 179.217 257.972 171.728 248.411 171.728 L 246.411 171.728 C 245.848 171.728 245.301 171.744 244.768 171.777 C 252.618 172.942 259.411 180.026 259.411 188.728 L 259.411 217.728 Z M 222.411 181.728 C 222.411 184.489 220.172 186.728 217.411 186.728 C 214.65 186.728 212.411 184.489 212.411 181.728 C 212.411 178.966 214.65 176.728 217.411 176.728 C 220.172 176.728 222.411 178.966 222.411 181.728 Z" fill="#A6D2FF"/>
  <path fill-rule="evenodd" clip-rule="evenodd" d="M 198.681 143.96 C 199.308 146.051 200.71 147.844 202.615 148.975 C 202.12 150.247 201.862 151.596 201.862 152.978 C 201.862 157.387 204.426 161.201 208.158 163.046 L 208.158 169.728 L 187.411 169.728 C 177.47 169.728 169.411 177.787 169.411 187.728 L 169.411 219.728 L 187.411 219.728 L 205.411 219.728 L 213.411 219.728 L 213.411 247.732 C 214.084 247.744 214.751 247.779 215.411 247.836 L 215.411 219.728 L 221.411 219.728 L 221.411 249.017 C 222.089 249.229 222.756 249.465 223.411 249.725 L 223.411 219.728 L 267.411 219.728 L 267.411 188.728 C 267.411 178.108 258.95 169.728 248.411 169.728 L 214.158 169.728 L 214.158 164.191 C 216.798 163.981 219.248 162.869 221.135 161.066 L 235.672 161.066 C 236.552 161.066 237.003 160.011 236.395 159.375 L 213.214 135.108 C 211.539 133.572 209.417 132.728 207.164 132.728 C 203.123 132.728 199.712 135.41 198.656 139.075 L 197.359 139.617 L 195.026 140.589 C 194.206 140.931 194.206 142.093 195.026 142.435 L 197.36 143.408 L 198.681 143.96 Z M 210.158 169.728 L 210.158 163.81 C 210.803 163.989 211.472 164.114 212.158 164.178 L 212.158 169.728 L 210.158 169.728 Z M 265.411 217.728 L 265.411 188.728 C 265.411 179.217 257.85 171.728 248.411 171.728 L 245.411 171.728 C 245.363 171.728 245.294 171.729 245.212 171.731 L 245.212 171.731 C 244.989 171.735 244.669 171.742 244.411 171.728 L 195.665 171.728 C 201.454 174.72 205.411 180.762 205.411 187.728 L 205.411 217.728 L 213.411 217.728 L 223.411 217.728 L 265.411 217.728 Z M 171.411 187.728 C 171.411 178.891 178.574 171.728 187.411 171.728 C 196.248 171.728 203.411 178.891 203.411 187.728 L 203.411 217.728 L 171.411 217.728 L 171.411 187.728 Z M 231.411 182.728 L 217.411 182.728 C 216.847 182.728 216.411 182.28 216.411 181.728 C 216.411 181.175 216.847 180.728 217.411 180.728 L 231.411 180.728 L 250.411 180.728 L 250.411 211.728 L 241.411 203.728 L 231.411 211.728 L 231.411 182.728 Z M 248.411 182.728 L 233.411 182.728 L 233.411 207.728 L 241.411 201.228 L 248.411 207.728 L 248.411 182.728 Z M 211.816 136.537 C 210.553 135.381 208.911 134.728 207.164 134.728 C 203.381 134.728 200.318 137.753 200.318 141.478 C 200.318 144.138 201.898 146.516 204.317 147.61 C 204.831 147.842 205.051 148.454 204.803 148.961 C 204.186 150.218 203.862 151.578 203.862 152.978 C 203.862 158.083 208.057 162.228 213.238 162.228 C 215.827 162.228 218.244 161.184 220.005 159.369 C 220.194 159.175 220.452 159.066 220.723 159.066 L 233.334 159.066 L 211.816 136.537 Z M 209.011 148.247 C 208.46 148.278 208.038 148.75 208.068 149.301 C 208.127 150.361 208.627 151.851 209.94 153.318 C 211.593 155.166 214.167 156.429 217.793 156.878 C 218.341 156.946 218.84 156.557 218.908 156.009 C 218.976 155.461 218.587 154.961 218.039 154.893 C 214.876 154.501 212.748 153.457 211.431 151.985 C 210.859 151.346 210.479 150.666 210.253 149.992 C 210.123 149.603 210.073 149.318 210.065 149.19 C 210.035 148.638 209.563 148.216 209.011 148.247 Z M 205.658 142.566 C 206.486 142.566 207.158 141.894 207.158 141.066 C 207.158 140.237 206.486 139.566 205.658 139.566 C 204.829 139.566 204.158 140.237 204.158 141.066 C 204.158 141.894 204.829 142.566 205.658 142.566 Z" fill="#0B77E3"/>
  <path d="M 126.02 314.251 L 122.536 314.251 L 122.536 323.728 L 120.192 323.728 L 120.192 314.251 L 116.755 314.251 L 116.755 312.353 L 126.02 312.353 L 126.02 314.251 Z" fill="#333333"/>
  <path d="M 129.419 316.197 C 130.018 315.478 130.77 315.119 131.676 315.119 C 133.51 315.119 134.439 316.184 134.466 318.314 L 134.466 323.728 L 132.208 323.728 L 132.208 318.376 C 132.208 317.892 132.104 317.535 131.895 317.306 C 131.687 317.072 131.341 316.955 130.856 316.955 C 130.195 316.955 129.716 317.21 129.419 317.72 L 129.419 323.728 L 127.161 323.728 L 127.161 311.728 L 129.419 311.728 L 129.419 316.197 Z" fill="#333333"/>
  <path d="M 140.059 323.884 C 138.82 323.884 137.809 323.504 137.028 322.744 C 136.252 321.983 135.864 320.97 135.864 319.705 L 135.864 319.486 C 135.864 318.637 136.028 317.879 136.356 317.212 C 136.684 316.54 137.148 316.025 137.747 315.666 C 138.351 315.301 139.038 315.119 139.809 315.119 C 140.966 315.119 141.874 315.483 142.536 316.212 C 143.203 316.942 143.536 317.975 143.536 319.314 L 143.536 320.236 L 138.153 320.236 C 138.226 320.788 138.445 321.231 138.809 321.564 C 139.179 321.897 139.645 322.064 140.208 322.064 C 141.078 322.064 141.757 321.749 142.247 321.119 L 143.356 322.361 C 143.018 322.84 142.559 323.215 141.981 323.486 C 141.403 323.751 140.762 323.884 140.059 323.884 Z M 139.801 316.947 C 139.354 316.947 138.989 317.098 138.708 317.4 C 138.432 317.702 138.255 318.134 138.176 318.697 L 141.317 318.697 L 141.317 318.517 C 141.307 318.017 141.171 317.632 140.911 317.361 C 140.65 317.085 140.281 316.947 139.801 316.947 Z" fill="#333333"/>
  <path d="M 149.575 317.392 C 149.268 317.35 148.997 317.33 148.763 317.33 C 147.908 317.33 147.349 317.619 147.083 318.197 L 147.083 323.728 L 144.825 323.728 L 144.825 315.275 L 146.958 315.275 L 147.02 316.283 C 147.473 315.507 148.101 315.119 148.903 315.119 C 149.153 315.119 149.388 315.152 149.606 315.22 L 149.575 317.392 Z" fill="#333333"/>
  <path d="M 154.403 323.884 C 153.164 323.884 152.153 323.504 151.372 322.744 C 150.596 321.983 150.208 320.97 150.208 319.705 L 150.208 319.486 C 150.208 318.637 150.372 317.879 150.7 317.212 C 151.028 316.54 151.492 316.025 152.091 315.666 C 152.695 315.301 153.382 315.119 154.153 315.119 C 155.309 315.119 156.218 315.483 156.88 316.212 C 157.546 316.942 157.88 317.975 157.88 319.314 L 157.88 320.236 L 152.497 320.236 C 152.57 320.788 152.789 321.231 153.153 321.564 C 153.523 321.897 153.989 322.064 154.552 322.064 C 155.421 322.064 156.101 321.749 156.591 321.119 L 157.7 322.361 C 157.362 322.84 156.903 323.215 156.325 323.486 C 155.747 323.751 155.106 323.884 154.403 323.884 Z M 154.145 316.947 C 153.697 316.947 153.333 317.098 153.052 317.4 C 152.776 317.702 152.599 318.134 152.52 318.697 L 155.661 318.697 L 155.661 318.517 C 155.651 318.017 155.515 317.632 155.255 317.361 C 154.994 317.085 154.625 316.947 154.145 316.947 Z" fill="#333333"/>
  <path d="M 168.052 323.728 C 167.947 323.525 167.872 323.272 167.825 322.97 C 167.278 323.58 166.567 323.884 165.692 323.884 C 164.864 323.884 164.177 323.645 163.63 323.166 C 163.088 322.686 162.817 322.082 162.817 321.353 C 162.817 320.457 163.148 319.77 163.809 319.29 C 164.476 318.811 165.437 318.569 166.692 318.564 L 167.731 318.564 L 167.731 318.08 C 167.731 317.689 167.63 317.376 167.427 317.142 C 167.229 316.908 166.914 316.79 166.481 316.79 C 166.101 316.79 165.802 316.882 165.583 317.064 C 165.369 317.246 165.263 317.496 165.263 317.814 L 163.005 317.814 C 163.005 317.324 163.156 316.871 163.458 316.455 C 163.76 316.038 164.187 315.712 164.739 315.478 C 165.291 315.238 165.911 315.119 166.599 315.119 C 167.64 315.119 168.466 315.382 169.075 315.908 C 169.69 316.429 169.997 317.163 169.997 318.111 L 169.997 321.775 C 170.002 322.577 170.114 323.184 170.333 323.595 L 170.333 323.728 L 168.052 323.728 Z M 166.184 322.158 C 166.518 322.158 166.825 322.085 167.106 321.939 C 167.388 321.788 167.596 321.587 167.731 321.337 L 167.731 319.884 L 166.888 319.884 C 165.757 319.884 165.156 320.275 165.083 321.056 L 165.075 321.189 C 165.075 321.47 165.174 321.702 165.372 321.884 C 165.57 322.067 165.841 322.158 166.184 322.158 Z" fill="#333333"/>
  <path d="M 176.481 317.392 C 176.174 317.35 175.903 317.33 175.669 317.33 C 174.815 317.33 174.255 317.619 173.989 318.197 L 173.989 323.728 L 171.731 323.728 L 171.731 315.275 L 173.864 315.275 L 173.927 316.283 C 174.38 315.507 175.007 315.119 175.809 315.119 C 176.059 315.119 176.294 315.152 176.513 315.22 L 176.481 317.392 Z" fill="#333333"/>
  <path d="M 181.309 323.884 C 180.07 323.884 179.059 323.504 178.278 322.744 C 177.502 321.983 177.114 320.97 177.114 319.705 L 177.114 319.486 C 177.114 318.637 177.278 317.879 177.606 317.212 C 177.934 316.54 178.398 316.025 178.997 315.666 C 179.601 315.301 180.289 315.119 181.059 315.119 C 182.216 315.119 183.125 315.483 183.786 316.212 C 184.453 316.942 184.786 317.975 184.786 319.314 L 184.786 320.236 L 179.403 320.236 C 179.476 320.788 179.695 321.231 180.059 321.564 C 180.429 321.897 180.895 322.064 181.458 322.064 C 182.328 322.064 183.007 321.749 183.497 321.119 L 184.606 322.361 C 184.268 322.84 183.809 323.215 183.231 323.486 C 182.653 323.751 182.013 323.884 181.309 323.884 Z M 181.052 316.947 C 180.604 316.947 180.239 317.098 179.958 317.4 C 179.682 317.702 179.505 318.134 179.427 318.697 L 182.567 318.697 L 182.567 318.517 C 182.557 318.017 182.421 317.632 182.161 317.361 C 181.901 317.085 181.531 316.947 181.052 316.947 Z" fill="#333333"/>
  <path d="M 192.138 315.275 L 192.208 316.251 C 192.812 315.496 193.622 315.119 194.638 315.119 C 195.533 315.119 196.2 315.382 196.638 315.908 C 197.075 316.434 197.299 317.22 197.309 318.267 L 197.309 323.728 L 195.052 323.728 L 195.052 318.322 C 195.052 317.843 194.947 317.496 194.739 317.283 C 194.531 317.064 194.184 316.955 193.7 316.955 C 193.065 316.955 192.588 317.225 192.27 317.767 L 192.27 323.728 L 190.013 323.728 L 190.013 315.275 L 192.138 315.275 Z" fill="#333333"/>
  <path d="M 198.677 319.423 C 198.677 318.585 198.838 317.837 199.161 317.181 C 199.484 316.525 199.947 316.017 200.552 315.658 C 201.161 315.298 201.867 315.119 202.669 315.119 C 203.809 315.119 204.739 315.468 205.458 316.166 C 206.182 316.863 206.585 317.811 206.669 319.009 L 206.684 319.587 C 206.684 320.884 206.322 321.926 205.599 322.712 C 204.875 323.494 203.903 323.884 202.684 323.884 C 201.466 323.884 200.492 323.494 199.763 322.712 C 199.039 321.931 198.677 320.869 198.677 319.525 L 198.677 319.423 Z M 200.934 319.587 C 200.934 320.389 201.085 321.004 201.388 321.431 C 201.69 321.853 202.122 322.064 202.684 322.064 C 203.231 322.064 203.658 321.856 203.966 321.439 C 204.273 321.017 204.427 320.345 204.427 319.423 C 204.427 318.637 204.273 318.027 203.966 317.595 C 203.658 317.163 203.226 316.947 202.669 316.947 C 202.117 316.947 201.69 317.163 201.388 317.595 C 201.085 318.022 200.934 318.686 200.934 319.587 Z" fill="#333333"/>
  <path d="M 214.442 323.728 L 212.177 323.728 L 212.177 315.275 L 214.442 315.275 L 214.442 323.728 Z M 212.044 313.087 C 212.044 312.749 212.156 312.47 212.38 312.251 C 212.609 312.033 212.919 311.923 213.309 311.923 C 213.695 311.923 214.002 312.033 214.231 312.251 C 214.46 312.47 214.575 312.749 214.575 313.087 C 214.575 313.431 214.458 313.712 214.223 313.931 C 213.994 314.15 213.69 314.259 213.309 314.259 C 212.929 314.259 212.622 314.15 212.388 313.931 C 212.158 313.712 212.044 313.431 212.044 313.087 Z" fill="#333333"/>
  <path d="M 219.013 313.197 L 219.013 315.275 L 220.458 315.275 L 220.458 316.931 L 219.013 316.931 L 219.013 321.15 C 219.013 321.462 219.072 321.686 219.192 321.822 C 219.312 321.957 219.541 322.025 219.88 322.025 C 220.13 322.025 220.351 322.007 220.544 321.97 L 220.544 323.681 C 220.101 323.817 219.645 323.884 219.177 323.884 C 217.593 323.884 216.786 323.085 216.755 321.486 L 216.755 316.931 L 215.52 316.931 L 215.52 315.275 L 216.755 315.275 L 216.755 313.197 L 219.013 313.197 Z" fill="#333333"/>
  <path d="M 225.606 323.884 C 224.367 323.884 223.356 323.504 222.575 322.744 C 221.799 321.983 221.411 320.97 221.411 319.705 L 221.411 319.486 C 221.411 318.637 221.575 317.879 221.903 317.212 C 222.231 316.54 222.695 316.025 223.294 315.666 C 223.898 315.301 224.585 315.119 225.356 315.119 C 226.513 315.119 227.421 315.483 228.083 316.212 C 228.75 316.942 229.083 317.975 229.083 319.314 L 229.083 320.236 L 223.7 320.236 C 223.773 320.788 223.992 321.231 224.356 321.564 C 224.726 321.897 225.192 322.064 225.755 322.064 C 226.625 322.064 227.304 321.749 227.794 321.119 L 228.903 322.361 C 228.565 322.84 228.106 323.215 227.528 323.486 C 226.95 323.751 226.309 323.884 225.606 323.884 Z M 225.349 316.947 C 224.901 316.947 224.536 317.098 224.255 317.4 C 223.979 317.702 223.802 318.134 223.723 318.697 L 226.864 318.697 L 226.864 318.517 C 226.854 318.017 226.718 317.632 226.458 317.361 C 226.197 317.085 225.828 316.947 225.349 316.947 Z" fill="#333333"/>
  <path d="M 232.489 315.275 L 232.559 316.22 C 233.158 315.486 233.968 315.119 234.989 315.119 C 236.078 315.119 236.825 315.548 237.231 316.408 C 237.825 315.548 238.671 315.119 239.77 315.119 C 240.687 315.119 241.369 315.387 241.817 315.923 C 242.265 316.455 242.489 317.257 242.489 318.33 L 242.489 323.728 L 240.223 323.728 L 240.223 318.337 C 240.223 317.858 240.13 317.509 239.942 317.29 C 239.755 317.067 239.424 316.955 238.95 316.955 C 238.273 316.955 237.804 317.277 237.544 317.923 L 237.552 323.728 L 235.294 323.728 L 235.294 318.345 C 235.294 317.856 235.197 317.501 235.005 317.283 C 234.812 317.064 234.484 316.955 234.02 316.955 C 233.38 316.955 232.916 317.22 232.63 317.751 L 232.63 323.728 L 230.372 323.728 L 230.372 315.275 L 232.489 315.275 Z" fill="#333333"/>
  <path d="M 248.809 321.392 C 248.809 321.116 248.671 320.9 248.395 320.744 C 248.125 320.582 247.687 320.439 247.083 320.314 C 245.072 319.892 244.067 319.038 244.067 317.751 C 244.067 317.001 244.377 316.376 244.997 315.876 C 245.622 315.371 246.437 315.119 247.442 315.119 C 248.515 315.119 249.372 315.371 250.013 315.876 C 250.658 316.382 250.981 317.038 250.981 317.845 L 248.723 317.845 C 248.723 317.522 248.619 317.257 248.411 317.048 C 248.203 316.835 247.877 316.728 247.434 316.728 C 247.054 316.728 246.76 316.814 246.552 316.986 C 246.343 317.158 246.239 317.376 246.239 317.642 C 246.239 317.892 246.356 318.095 246.591 318.251 C 246.83 318.402 247.231 318.535 247.794 318.65 C 248.356 318.759 248.83 318.884 249.216 319.025 C 250.408 319.462 251.005 320.22 251.005 321.298 C 251.005 322.069 250.674 322.694 250.013 323.173 C 249.351 323.647 248.497 323.884 247.45 323.884 C 246.742 323.884 246.112 323.759 245.559 323.509 C 245.013 323.254 244.583 322.908 244.27 322.47 C 243.958 322.027 243.802 321.551 243.802 321.04 L 245.942 321.04 C 245.963 321.442 246.112 321.749 246.388 321.962 C 246.664 322.176 247.033 322.283 247.497 322.283 C 247.929 322.283 248.255 322.202 248.473 322.04 C 248.697 321.874 248.809 321.658 248.809 321.392 Z" fill="#333333"/>
  <path d="M 259.153 313.197 L 259.153 315.275 L 260.599 315.275 L 260.599 316.931 L 259.153 316.931 L 259.153 321.15 C 259.153 321.462 259.213 321.686 259.333 321.822 C 259.453 321.957 259.682 322.025 260.02 322.025 C 260.27 322.025 260.492 322.007 260.684 321.97 L 260.684 323.681 C 260.242 323.817 259.786 323.884 259.317 323.884 C 257.734 323.884 256.927 323.085 256.895 321.486 L 256.895 316.931 L 255.661 316.931 L 255.661 315.275 L 256.895 315.275 L 256.895 313.197 L 259.153 313.197 Z" fill="#333333"/>
  <path d="M 261.27 319.423 C 261.27 318.585 261.432 317.837 261.755 317.181 C 262.078 316.525 262.541 316.017 263.145 315.658 C 263.755 315.298 264.46 315.119 265.263 315.119 C 266.403 315.119 267.333 315.468 268.052 316.166 C 268.776 316.863 269.179 317.811 269.263 319.009 L 269.278 319.587 C 269.278 320.884 268.916 321.926 268.192 322.712 C 267.468 323.494 266.497 323.884 265.278 323.884 C 264.059 323.884 263.085 323.494 262.356 322.712 C 261.632 321.931 261.27 320.869 261.27 319.525 L 261.27 319.423 Z M 263.528 319.587 C 263.528 320.389 263.679 321.004 263.981 321.431 C 264.283 321.853 264.716 322.064 265.278 322.064 C 265.825 322.064 266.252 321.856 266.559 321.439 C 266.867 321.017 267.02 320.345 267.02 319.423 C 267.02 318.637 266.867 318.027 266.559 317.595 C 266.252 317.163 265.82 316.947 265.263 316.947 C 264.71 316.947 264.283 317.163 263.981 317.595 C 263.679 318.022 263.528 318.686 263.528 319.587 Z" fill="#333333"/>
  <path d="M 274.302 319.439 C 274.302 318.121 274.596 317.072 275.184 316.29 C 275.778 315.509 276.588 315.119 277.614 315.119 C 278.437 315.119 279.117 315.426 279.653 316.04 L 279.653 311.728 L 281.919 311.728 L 281.919 323.728 L 279.88 323.728 L 279.77 322.83 C 279.208 323.533 278.484 323.884 277.599 323.884 C 276.604 323.884 275.804 323.494 275.2 322.712 C 274.601 321.926 274.302 320.835 274.302 319.439 Z M 276.559 319.603 C 276.559 320.395 276.697 321.001 276.973 321.423 C 277.25 321.845 277.651 322.056 278.177 322.056 C 278.875 322.056 279.367 321.762 279.653 321.173 L 279.653 317.837 C 279.372 317.249 278.885 316.955 278.192 316.955 C 277.104 316.955 276.559 317.837 276.559 319.603 Z" fill="#333333"/>
  <path d="M 286.052 323.728 L 283.786 323.728 L 283.786 315.275 L 286.052 315.275 L 286.052 323.728 Z M 283.653 313.087 C 283.653 312.749 283.765 312.47 283.989 312.251 C 284.218 312.033 284.528 311.923 284.919 311.923 C 285.304 311.923 285.612 312.033 285.841 312.251 C 286.07 312.47 286.184 312.749 286.184 313.087 C 286.184 313.431 286.067 313.712 285.833 313.931 C 285.604 314.15 285.299 314.259 284.919 314.259 C 284.539 314.259 284.231 314.15 283.997 313.931 C 283.768 313.712 283.653 313.431 283.653 313.087 Z" fill="#333333"/>
  <path d="M 292.497 321.392 C 292.497 321.116 292.359 320.9 292.083 320.744 C 291.812 320.582 291.375 320.439 290.77 320.314 C 288.76 319.892 287.755 319.038 287.755 317.751 C 287.755 317.001 288.065 316.376 288.684 315.876 C 289.309 315.371 290.125 315.119 291.13 315.119 C 292.203 315.119 293.059 315.371 293.7 315.876 C 294.346 316.382 294.669 317.038 294.669 317.845 L 292.411 317.845 C 292.411 317.522 292.307 317.257 292.099 317.048 C 291.89 316.835 291.565 316.728 291.122 316.728 C 290.742 316.728 290.447 316.814 290.239 316.986 C 290.031 317.158 289.927 317.376 289.927 317.642 C 289.927 317.892 290.044 318.095 290.278 318.251 C 290.518 318.402 290.919 318.535 291.481 318.65 C 292.044 318.759 292.518 318.884 292.903 319.025 C 294.096 319.462 294.692 320.22 294.692 321.298 C 294.692 322.069 294.362 322.694 293.7 323.173 C 293.039 323.647 292.184 323.884 291.138 323.884 C 290.429 323.884 289.799 323.759 289.247 323.509 C 288.7 323.254 288.27 322.908 287.958 322.47 C 287.645 322.027 287.489 321.551 287.489 321.04 L 289.63 321.04 C 289.651 321.442 289.799 321.749 290.075 321.962 C 290.351 322.176 290.721 322.283 291.184 322.283 C 291.617 322.283 291.942 322.202 292.161 322.04 C 292.385 321.874 292.497 321.658 292.497 321.392 Z" fill="#333333"/>
  <path d="M 303.763 319.58 C 303.763 320.882 303.466 321.926 302.872 322.712 C 302.283 323.494 301.487 323.884 300.481 323.884 C 299.627 323.884 298.937 323.587 298.411 322.994 L 298.411 326.978 L 296.153 326.978 L 296.153 315.275 L 298.247 315.275 L 298.325 316.103 C 298.872 315.447 299.585 315.119 300.466 315.119 C 301.507 315.119 302.317 315.504 302.895 316.275 C 303.473 317.046 303.763 318.108 303.763 319.462 L 303.763 319.58 Z M 301.505 319.416 C 301.505 318.629 301.364 318.022 301.083 317.595 C 300.807 317.168 300.403 316.955 299.872 316.955 C 299.164 316.955 298.677 317.225 298.411 317.767 L 298.411 321.228 C 298.687 321.785 299.179 322.064 299.888 322.064 C 300.966 322.064 301.505 321.181 301.505 319.416 Z" fill="#333333"/>
  <path d="M 307.552 323.728 L 305.286 323.728 L 305.286 311.728 L 307.552 311.728 L 307.552 323.728 Z" fill="#333333"/>
  <path d="M 314.317 323.728 C 314.213 323.525 314.138 323.272 314.091 322.97 C 313.544 323.58 312.833 323.884 311.958 323.884 C 311.13 323.884 310.442 323.645 309.895 323.166 C 309.354 322.686 309.083 322.082 309.083 321.353 C 309.083 320.457 309.414 319.77 310.075 319.29 C 310.742 318.811 311.703 318.569 312.958 318.564 L 313.997 318.564 L 313.997 318.08 C 313.997 317.689 313.895 317.376 313.692 317.142 C 313.494 316.908 313.179 316.79 312.747 316.79 C 312.367 316.79 312.067 316.882 311.849 317.064 C 311.635 317.246 311.528 317.496 311.528 317.814 L 309.27 317.814 C 309.27 317.324 309.421 316.871 309.723 316.455 C 310.026 316.038 310.453 315.712 311.005 315.478 C 311.557 315.238 312.177 315.119 312.864 315.119 C 313.906 315.119 314.731 315.382 315.341 315.908 C 315.955 316.429 316.263 317.163 316.263 318.111 L 316.263 321.775 C 316.268 322.577 316.38 323.184 316.599 323.595 L 316.599 323.728 L 314.317 323.728 Z M 312.45 322.158 C 312.783 322.158 313.091 322.085 313.372 321.939 C 313.653 321.788 313.862 321.587 313.997 321.337 L 313.997 319.884 L 313.153 319.884 C 312.023 319.884 311.421 320.275 311.349 321.056 L 311.341 321.189 C 311.341 321.47 311.44 321.702 311.638 321.884 C 311.835 322.067 312.106 322.158 312.45 322.158 Z" fill="#333333"/>
  <path d="M 321.028 320.533 L 322.591 315.275 L 325.013 315.275 L 321.614 325.04 L 321.427 325.486 C 320.921 326.59 320.088 327.142 318.927 327.142 C 318.599 327.142 318.265 327.093 317.927 326.994 L 317.927 325.283 L 318.27 325.29 C 318.697 325.29 319.015 325.225 319.223 325.095 C 319.437 324.965 319.604 324.749 319.723 324.447 L 319.989 323.751 L 317.028 315.275 L 319.458 315.275 L 321.028 320.533 Z" fill="#333333"/>
  <path d="M 324.708 322.619 C 324.708 322.259 324.828 321.968 325.067 321.744 C 325.312 321.52 325.617 321.408 325.981 321.408 C 326.351 321.408 326.656 321.52 326.895 321.744 C 327.14 321.968 327.263 322.259 327.263 322.619 C 327.263 322.973 327.143 323.262 326.903 323.486 C 326.664 323.705 326.356 323.814 325.981 323.814 C 325.612 323.814 325.307 323.705 325.067 323.486 C 324.828 323.262 324.708 322.973 324.708 322.619 Z" fill="#333333"/>
</svg>